<?xml version="1.0" encoding="UTF-8" standalone="no"?>
<!DOCTYPE svg PUBLIC "-//W3C//DTD SVG 1.1//EN"
 "http://www.w3.org/Graphics/SVG/1.1/DTD/svg11.dtd">
<!-- Generated by graphviz version 2.43.0 (0)
 -->
<!-- Title: %3 Pages: 1 -->
<svg width="4152pt" height="5072pt"
 viewBox="0.00 0.00 1038.00 1268.00" xmlns="http://www.w3.org/2000/svg" xmlns:xlink="http://www.w3.org/1999/xlink">
<g id="graph0" class="graph" transform="scale(0.25 0.25) rotate(0) translate(4 1264)">
<title>%3</title>
<polygon fill="white" stroke="transparent" points="-4,4 -4,-1264 1034,-1264 1034,4 -4,4"/>
<!-- n0 -->
<g id="node1" class="node">
<title>n0</title>
<polygon fill="none" stroke="black" points="355,-1260 276,-1260 276,-1224 355,-1224 355,-1260"/>
<text text-anchor="middle" x="315.5" y="-1238.3" font-family="Times,serif" font-size="14.00">Program</text>
</g>
<!-- n1 -->
<g id="node2" class="node">
<title>n1</title>
<polygon fill="none" stroke="black" points="343.5,-1188 287.5,-1188 287.5,-1152 343.5,-1152 343.5,-1188"/>
<text text-anchor="middle" x="315.5" y="-1166.3" font-family="Times,serif" font-size="14.00">Array</text>
</g>
<!-- n0&#45;&gt;n1 -->
<g id="edge1" class="edge">
<title>n0&#45;&gt;n1</title>
<path fill="none" stroke="black" d="M315.5,-1223.7C315.5,-1215.98 315.5,-1206.71 315.5,-1198.11"/>
<polygon fill="black" stroke="black" points="319,-1198.1 315.5,-1188.1 312,-1198.1 319,-1198.1"/>
<text text-anchor="middle" x="298" y="-1212.5" font-family="Times,serif" font-size="14.00">body</text>
</g>
<!-- n2 -->
<g id="node3" class="node">
<title>n2</title>
<polygon fill="none" stroke="black" points="304.5,-1116 142.5,-1116 142.5,-1080 304.5,-1080 304.5,-1116"/>
<text text-anchor="middle" x="223.5" y="-1094.3" font-family="Times,serif" font-size="14.00">FunctionDeclaration</text>
</g>
<!-- n1&#45;&gt;n2 -->
<g id="edge2" class="edge">
<title>n1&#45;&gt;n2</title>
<path fill="none" stroke="black" d="M292.76,-1151.7C281.06,-1142.8 266.64,-1131.82 253.99,-1122.2"/>
<polygon fill="black" stroke="black" points="256.06,-1119.37 245.98,-1116.1 251.82,-1124.94 256.06,-1119.37"/>
<text text-anchor="middle" x="287.76" y="-1140.5" font-family="Times,serif" font-size="14.00">0</text>
</g>
<!-- n42 -->
<g id="node43" class="node">
<title>n42</title>
<polygon fill="none" stroke="black" points="512,-1116 341,-1116 341,-1080 512,-1080 512,-1116"/>
<text text-anchor="middle" x="426.5" y="-1094.3" font-family="Times,serif" font-size="14.00">ExpressionStatement</text>
</g>
<!-- n1&#45;&gt;n42 -->
<g id="edge42" class="edge">
<title>n1&#45;&gt;n42</title>
<path fill="none" stroke="black" d="M342.65,-1151.88C357.03,-1142.81 374.88,-1131.55 390.41,-1121.76"/>
<polygon fill="black" stroke="black" points="392.65,-1124.48 399.24,-1116.19 388.92,-1118.56 392.65,-1124.48"/>
<text text-anchor="middle" x="337.65" y="-1140.68" font-family="Times,serif" font-size="14.00">1</text>
</g>
<!-- n3 -->
<g id="node4" class="node">
<title>n3</title>
<polygon fill="none" stroke="black" points="141.5,-1044 13.5,-1044 13.5,-1008 141.5,-1008 141.5,-1044"/>
<text text-anchor="middle" x="77.5" y="-1022.3" font-family="Times,serif" font-size="14.00">Identifier(hoge)</text>
</g>
<!-- n2&#45;&gt;n3 -->
<g id="edge3" class="edge">
<title>n2&#45;&gt;n3</title>
<path fill="none" stroke="black" d="M187.78,-1079.88C168,-1070.39 143.23,-1058.51 122.17,-1048.42"/>
<polygon fill="black" stroke="black" points="123.63,-1045.24 113.1,-1044.07 120.6,-1051.55 123.63,-1045.24"/>
<text text-anchor="middle" x="180.78" y="-1068.68" font-family="Times,serif" font-size="14.00">id</text>
</g>
<!-- n4 -->
<g id="node5" class="node">
<title>n4</title>
<polygon fill="none" stroke="black" points="215.5,-1044 159.5,-1044 159.5,-1008 215.5,-1008 215.5,-1044"/>
<text text-anchor="middle" x="187.5" y="-1022.3" font-family="Times,serif" font-size="14.00">Array</text>
</g>
<!-- n2&#45;&gt;n4 -->
<g id="edge4" class="edge">
<title>n2&#45;&gt;n4</title>
<path fill="none" stroke="black" d="M214.6,-1079.7C210.5,-1071.73 205.55,-1062.1 201.01,-1053.26"/>
<polygon fill="black" stroke="black" points="203.98,-1051.4 196.3,-1044.1 197.76,-1054.6 203.98,-1051.4"/>
<text text-anchor="middle" x="241.6" y="-1068.5" font-family="Times,serif" font-size="14.00">params</text>
</g>
<!-- n7 -->
<g id="node8" class="node">
<title>n7</title>
<polygon fill="none" stroke="black" points="365,-1044 234,-1044 234,-1008 365,-1008 365,-1044"/>
<text text-anchor="middle" x="299.5" y="-1022.3" font-family="Times,serif" font-size="14.00">BlockStatement</text>
</g>
<!-- n2&#45;&gt;n7 -->
<g id="edge7" class="edge">
<title>n2&#45;&gt;n7</title>
<path fill="none" stroke="black" d="M242.29,-1079.7C251.67,-1071.05 263.18,-1060.45 273.41,-1051.03"/>
<polygon fill="black" stroke="black" points="275.95,-1053.45 280.93,-1044.1 271.2,-1048.3 275.95,-1053.45"/>
<text text-anchor="middle" x="224.79" y="-1068.5" font-family="Times,serif" font-size="14.00">body</text>
</g>
<!-- n5 -->
<g id="node6" class="node">
<title>n5</title>
<polygon fill="none" stroke="black" points="115,-972 0,-972 0,-936 115,-936 115,-972"/>
<text text-anchor="middle" x="57.5" y="-950.3" font-family="Times,serif" font-size="14.00">Identifier(foo)</text>
</g>
<!-- n4&#45;&gt;n5 -->
<g id="edge5" class="edge">
<title>n4&#45;&gt;n5</title>
<path fill="none" stroke="black" d="M159.29,-1009.81C141.42,-1000.19 118.01,-987.58 98.15,-976.89"/>
<polygon fill="black" stroke="black" points="99.77,-973.79 89.31,-972.13 96.45,-979.95 99.77,-973.79"/>
<text text-anchor="middle" x="154.29" y="-1013.61" font-family="Times,serif" font-size="14.00">0</text>
</g>
<!-- n6 -->
<g id="node7" class="node">
<title>n6</title>
<polygon fill="none" stroke="black" points="250,-972 133,-972 133,-936 250,-936 250,-972"/>
<text text-anchor="middle" x="191.5" y="-950.3" font-family="Times,serif" font-size="14.00">Identifier(bar)</text>
</g>
<!-- n4&#45;&gt;n6 -->
<g id="edge6" class="edge">
<title>n4&#45;&gt;n6</title>
<path fill="none" stroke="black" d="M188.49,-1007.7C188.93,-999.98 189.46,-990.71 189.95,-982.11"/>
<polygon fill="black" stroke="black" points="193.45,-982.29 190.52,-972.1 186.46,-981.89 193.45,-982.29"/>
<text text-anchor="middle" x="183.49" y="-996.5" font-family="Times,serif" font-size="14.00">1</text>
</g>
<!-- n8 -->
<g id="node9" class="node">
<title>n8</title>
<polygon fill="none" stroke="black" points="327.5,-972 271.5,-972 271.5,-936 327.5,-936 327.5,-972"/>
<text text-anchor="middle" x="299.5" y="-950.3" font-family="Times,serif" font-size="14.00">Array</text>
</g>
<!-- n7&#45;&gt;n8 -->
<g id="edge8" class="edge">
<title>n7&#45;&gt;n8</title>
<path fill="none" stroke="black" d="M299.5,-1007.7C299.5,-999.98 299.5,-990.71 299.5,-982.11"/>
<polygon fill="black" stroke="black" points="303,-982.1 299.5,-972.1 296,-982.1 303,-982.1"/>
<text text-anchor="middle" x="282" y="-996.5" font-family="Times,serif" font-size="14.00">body</text>
</g>
<!-- n9 -->
<g id="node10" class="node">
<title>n9</title>
<polygon fill="none" stroke="black" points="364.5,-900 234.5,-900 234.5,-864 364.5,-864 364.5,-900"/>
<text text-anchor="middle" x="299.5" y="-878.3" font-family="Times,serif" font-size="14.00">ForInStatement</text>
</g>
<!-- n8&#45;&gt;n9 -->
<g id="edge9" class="edge">
<title>n8&#45;&gt;n9</title>
<path fill="none" stroke="black" d="M299.5,-935.7C299.5,-927.98 299.5,-918.71 299.5,-910.11"/>
<polygon fill="black" stroke="black" points="303,-910.1 299.5,-900.1 296,-910.1 303,-910.1"/>
<text text-anchor="middle" x="294.5" y="-924.5" font-family="Times,serif" font-size="14.00">0</text>
</g>
<!-- n10 -->
<g id="node11" class="node">
<title>n10</title>
<polygon fill="none" stroke="black" points="222.5,-828 64.5,-828 64.5,-792 222.5,-792 222.5,-828"/>
<text text-anchor="middle" x="143.5" y="-806.3" font-family="Times,serif" font-size="14.00">VariableDeclaration</text>
</g>
<!-- n9&#45;&gt;n10 -->
<g id="edge10" class="edge">
<title>n9&#45;&gt;n10</title>
<path fill="none" stroke="black" d="M261.34,-863.88C240.11,-854.35 213.49,-842.41 190.93,-832.28"/>
<polygon fill="black" stroke="black" points="192.09,-828.97 181.54,-828.07 189.23,-835.36 192.09,-828.97"/>
<text text-anchor="middle" x="248.84" y="-852.68" font-family="Times,serif" font-size="14.00">left</text>
</g>
<!-- n14 -->
<g id="node15" class="node">
<title>n14</title>
<polygon fill="none" stroke="black" points="358,-828 241,-828 241,-792 358,-792 358,-828"/>
<text text-anchor="middle" x="299.5" y="-806.3" font-family="Times,serif" font-size="14.00">Identifier(bar)</text>
</g>
<!-- n9&#45;&gt;n14 -->
<g id="edge14" class="edge">
<title>n9&#45;&gt;n14</title>
<path fill="none" stroke="black" d="M299.5,-863.7C299.5,-855.98 299.5,-846.71 299.5,-838.11"/>
<polygon fill="black" stroke="black" points="303,-838.1 299.5,-828.1 296,-838.1 303,-838.1"/>
<text text-anchor="middle" x="281.5" y="-852.5" font-family="Times,serif" font-size="14.00">right</text>
</g>
<!-- n15 -->
<g id="node16" class="node">
<title>n15</title>
<polygon fill="none" stroke="black" points="507,-828 376,-828 376,-792 507,-792 507,-828"/>
<text text-anchor="middle" x="441.5" y="-806.3" font-family="Times,serif" font-size="14.00">BlockStatement</text>
</g>
<!-- n9&#45;&gt;n15 -->
<g id="edge15" class="edge">
<title>n9&#45;&gt;n15</title>
<path fill="none" stroke="black" d="M334.24,-863.88C353.32,-854.47 377.18,-842.71 397.55,-832.67"/>
<polygon fill="black" stroke="black" points="399.21,-835.75 406.63,-828.19 396.11,-829.47 399.21,-835.75"/>
<text text-anchor="middle" x="351.74" y="-852.68" font-family="Times,serif" font-size="14.00">body</text>
</g>
<!-- n11 -->
<g id="node12" class="node">
<title>n11</title>
<polygon fill="none" stroke="black" points="171.5,-756 115.5,-756 115.5,-720 171.5,-720 171.5,-756"/>
<text text-anchor="middle" x="143.5" y="-734.3" font-family="Times,serif" font-size="14.00">Array</text>
</g>
<!-- n10&#45;&gt;n11 -->
<g id="edge11" class="edge">
<title>n10&#45;&gt;n11</title>
<path fill="none" stroke="black" d="M143.5,-791.7C143.5,-783.98 143.5,-774.71 143.5,-766.11"/>
<polygon fill="black" stroke="black" points="147,-766.1 143.5,-756.1 140,-766.1 147,-766.1"/>
<text text-anchor="middle" x="99.5" y="-780.5" font-family="Times,serif" font-size="14.00">declarations</text>
</g>
<!-- n12 -->
<g id="node13" class="node">
<title>n12</title>
<polygon fill="none" stroke="black" points="219,-684 68,-684 68,-648 219,-648 219,-684"/>
<text text-anchor="middle" x="143.5" y="-662.3" font-family="Times,serif" font-size="14.00">VariableDeclarator</text>
</g>
<!-- n11&#45;&gt;n12 -->
<g id="edge12" class="edge">
<title>n11&#45;&gt;n12</title>
<path fill="none" stroke="black" d="M143.5,-719.7C143.5,-711.98 143.5,-702.71 143.5,-694.11"/>
<polygon fill="black" stroke="black" points="147,-694.1 143.5,-684.1 140,-694.1 147,-694.1"/>
<text text-anchor="middle" x="138.5" y="-708.5" font-family="Times,serif" font-size="14.00">0</text>
</g>
<!-- n13 -->
<g id="node14" class="node">
<title>n13</title>
<polygon fill="none" stroke="black" points="196.5,-612 90.5,-612 90.5,-576 196.5,-576 196.5,-612"/>
<text text-anchor="middle" x="143.5" y="-590.3" font-family="Times,serif" font-size="14.00">Identifier(ix)</text>
</g>
<!-- n12&#45;&gt;n13 -->
<g id="edge13" class="edge">
<title>n12&#45;&gt;n13</title>
<path fill="none" stroke="black" d="M143.5,-647.7C143.5,-639.98 143.5,-630.71 143.5,-622.11"/>
<polygon fill="black" stroke="black" points="147,-622.1 143.5,-612.1 140,-622.1 147,-622.1"/>
<text text-anchor="middle" x="136.5" y="-636.5" font-family="Times,serif" font-size="14.00">id</text>
</g>
<!-- n16 -->
<g id="node17" class="node">
<title>n16</title>
<polygon fill="none" stroke="black" points="469.5,-756 413.5,-756 413.5,-720 469.5,-720 469.5,-756"/>
<text text-anchor="middle" x="441.5" y="-734.3" font-family="Times,serif" font-size="14.00">Array</text>
</g>
<!-- n15&#45;&gt;n16 -->
<g id="edge16" class="edge">
<title>n15&#45;&gt;n16</title>
<path fill="none" stroke="black" d="M441.5,-791.7C441.5,-783.98 441.5,-774.71 441.5,-766.11"/>
<polygon fill="black" stroke="black" points="445,-766.1 441.5,-756.1 438,-766.1 445,-766.1"/>
<text text-anchor="middle" x="424" y="-780.5" font-family="Times,serif" font-size="14.00">body</text>
</g>
<!-- n17 -->
<g id="node18" class="node">
<title>n17</title>
<polygon fill="none" stroke="black" points="457.5,-684 299.5,-684 299.5,-648 457.5,-648 457.5,-684"/>
<text text-anchor="middle" x="378.5" y="-662.3" font-family="Times,serif" font-size="14.00">VariableDeclaration</text>
</g>
<!-- n16&#45;&gt;n17 -->
<g id="edge17" class="edge">
<title>n16&#45;&gt;n17</title>
<path fill="none" stroke="black" d="M425.93,-719.7C418.3,-711.22 408.98,-700.86 400.62,-691.58"/>
<polygon fill="black" stroke="black" points="403.19,-689.2 393.89,-684.1 397.98,-693.88 403.19,-689.2"/>
<text text-anchor="middle" x="420.93" y="-708.5" font-family="Times,serif" font-size="14.00">0</text>
</g>
<!-- n24 -->
<g id="node25" class="node">
<title>n24</title>
<polygon fill="none" stroke="black" points="578.5,-684 476.5,-684 476.5,-648 578.5,-648 578.5,-684"/>
<text text-anchor="middle" x="527.5" y="-662.3" font-family="Times,serif" font-size="14.00">IfStatement</text>
</g>
<!-- n16&#45;&gt;n24 -->
<g id="edge24" class="edge">
<title>n16&#45;&gt;n24</title>
<path fill="none" stroke="black" d="M462.76,-719.7C473.59,-710.88 486.92,-700.03 498.66,-690.47"/>
<polygon fill="black" stroke="black" points="500.94,-693.13 506.49,-684.1 496.52,-687.7 500.94,-693.13"/>
<text text-anchor="middle" x="457.76" y="-708.5" font-family="Times,serif" font-size="14.00">1</text>
</g>
<!-- n18 -->
<g id="node19" class="node">
<title>n18</title>
<polygon fill="none" stroke="black" points="390.5,-612 334.5,-612 334.5,-576 390.5,-576 390.5,-612"/>
<text text-anchor="middle" x="362.5" y="-590.3" font-family="Times,serif" font-size="14.00">Array</text>
</g>
<!-- n17&#45;&gt;n18 -->
<g id="edge18" class="edge">
<title>n17&#45;&gt;n18</title>
<path fill="none" stroke="black" d="M374.54,-647.7C372.78,-639.98 370.66,-630.71 368.7,-622.11"/>
<polygon fill="black" stroke="black" points="372.05,-621.07 366.41,-612.1 365.23,-622.63 372.05,-621.07"/>
<text text-anchor="middle" x="330.54" y="-636.5" font-family="Times,serif" font-size="14.00">declarations</text>
</g>
<!-- n19 -->
<g id="node20" class="node">
<title>n19</title>
<polygon fill="none" stroke="black" points="437,-540 286,-540 286,-504 437,-504 437,-540"/>
<text text-anchor="middle" x="361.5" y="-518.3" font-family="Times,serif" font-size="14.00">VariableDeclarator</text>
</g>
<!-- n18&#45;&gt;n19 -->
<g id="edge19" class="edge">
<title>n18&#45;&gt;n19</title>
<path fill="none" stroke="black" d="M362.25,-575.7C362.14,-567.98 362.01,-558.71 361.89,-550.11"/>
<polygon fill="black" stroke="black" points="365.39,-550.05 361.74,-540.1 358.39,-550.15 365.39,-550.05"/>
<text text-anchor="middle" x="357.25" y="-564.5" font-family="Times,serif" font-size="14.00">0</text>
</g>
<!-- n20 -->
<g id="node21" class="node">
<title>n20</title>
<polygon fill="none" stroke="black" points="370.5,-468 256.5,-468 256.5,-432 370.5,-432 370.5,-468"/>
<text text-anchor="middle" x="313.5" y="-446.3" font-family="Times,serif" font-size="14.00">Identifier(val)</text>
</g>
<!-- n19&#45;&gt;n20 -->
<g id="edge20" class="edge">
<title>n19&#45;&gt;n20</title>
<path fill="none" stroke="black" d="M349.63,-503.7C344,-495.47 337.15,-485.48 330.93,-476.42"/>
<polygon fill="black" stroke="black" points="333.77,-474.37 325.23,-468.1 328,-478.33 333.77,-474.37"/>
<text text-anchor="middle" x="342.63" y="-492.5" font-family="Times,serif" font-size="14.00">id</text>
</g>
<!-- n21 -->
<g id="node22" class="node">
<title>n21</title>
<polygon fill="none" stroke="black" points="544.5,-468 388.5,-468 388.5,-432 544.5,-432 544.5,-468"/>
<text text-anchor="middle" x="466.5" y="-446.3" font-family="Times,serif" font-size="14.00">MemberExpression</text>
</g>
<!-- n19&#45;&gt;n21 -->
<g id="edge21" class="edge">
<title>n19&#45;&gt;n21</title>
<path fill="none" stroke="black" d="M387.19,-503.88C400.79,-494.81 417.67,-483.55 432.36,-473.76"/>
<polygon fill="black" stroke="black" points="434.34,-476.65 440.72,-468.19 430.45,-470.82 434.34,-476.65"/>
<text text-anchor="middle" x="374.69" y="-492.68" font-family="Times,serif" font-size="14.00">init</text>
</g>
<!-- n22 -->
<g id="node23" class="node">
<title>n22</title>
<polygon fill="none" stroke="black" points="478,-396 361,-396 361,-360 478,-360 478,-396"/>
<text text-anchor="middle" x="419.5" y="-374.3" font-family="Times,serif" font-size="14.00">Identifier(bar)</text>
</g>
<!-- n21&#45;&gt;n22 -->
<g id="edge22" class="edge">
<title>n21&#45;&gt;n22</title>
<path fill="none" stroke="black" d="M454.88,-431.7C449.36,-423.47 442.65,-413.48 436.57,-404.42"/>
<polygon fill="black" stroke="black" points="439.46,-402.46 430.98,-396.1 433.65,-406.36 439.46,-402.46"/>
<text text-anchor="middle" x="432.88" y="-420.5" font-family="Times,serif" font-size="14.00">object</text>
</g>
<!-- n23 -->
<g id="node24" class="node">
<title>n23</title>
<polygon fill="none" stroke="black" points="602.5,-396 496.5,-396 496.5,-360 602.5,-360 602.5,-396"/>
<text text-anchor="middle" x="549.5" y="-374.3" font-family="Times,serif" font-size="14.00">Identifier(ix)</text>
</g>
<!-- n21&#45;&gt;n23 -->
<g id="edge23" class="edge">
<title>n21&#45;&gt;n23</title>
<path fill="none" stroke="black" d="M487.02,-431.7C497.37,-422.97 510.09,-412.24 521.34,-402.75"/>
<polygon fill="black" stroke="black" points="523.83,-405.23 529.22,-396.1 519.32,-399.88 523.83,-405.23"/>
<text text-anchor="middle" x="518.52" y="-420.5" font-family="Times,serif" font-size="14.00">property</text>
</g>
<!-- n25 -->
<g id="node26" class="node">
<title>n25</title>
<polygon fill="none" stroke="black" points="610.5,-612 444.5,-612 444.5,-576 610.5,-576 610.5,-612"/>
<text text-anchor="middle" x="527.5" y="-590.3" font-family="Times,serif" font-size="14.00">BinaryExpression(&lt;)</text>
</g>
<!-- n24&#45;&gt;n25 -->
<g id="edge25" class="edge">
<title>n24&#45;&gt;n25</title>
<path fill="none" stroke="black" d="M527.5,-647.7C527.5,-639.98 527.5,-630.71 527.5,-622.11"/>
<polygon fill="black" stroke="black" points="531,-622.1 527.5,-612.1 524,-622.1 531,-622.1"/>
<text text-anchor="middle" x="513.5" y="-636.5" font-family="Times,serif" font-size="14.00">test</text>
</g>
<!-- n28 -->
<g id="node29" class="node">
<title>n28</title>
<polygon fill="none" stroke="black" points="790,-612 659,-612 659,-576 790,-576 790,-612"/>
<text text-anchor="middle" x="724.5" y="-590.3" font-family="Times,serif" font-size="14.00">BlockStatement</text>
</g>
<!-- n24&#45;&gt;n28 -->
<g id="edge28" class="edge">
<title>n24&#45;&gt;n28</title>
<path fill="none" stroke="black" d="M575.44,-647.97C602.97,-638.19 637.72,-625.84 666.74,-615.52"/>
<polygon fill="black" stroke="black" points="668.09,-618.76 676.35,-612.11 665.75,-612.16 668.09,-618.76"/>
<text text-anchor="middle" x="616.44" y="-636.77" font-family="Times,serif" font-size="14.00">consequent</text>
</g>
<!-- n26 -->
<g id="node27" class="node">
<title>n26</title>
<polygon fill="none" stroke="black" points="569.5,-540 455.5,-540 455.5,-504 569.5,-504 569.5,-540"/>
<text text-anchor="middle" x="512.5" y="-518.3" font-family="Times,serif" font-size="14.00">Identifier(val)</text>
</g>
<!-- n25&#45;&gt;n26 -->
<g id="edge26" class="edge">
<title>n25&#45;&gt;n26</title>
<path fill="none" stroke="black" d="M523.79,-575.7C522.14,-567.98 520.15,-558.71 518.31,-550.11"/>
<polygon fill="black" stroke="black" points="521.68,-549.15 516.17,-540.1 514.84,-550.62 521.68,-549.15"/>
<text text-anchor="middle" x="511.29" y="-564.5" font-family="Times,serif" font-size="14.00">left</text>
</g>
<!-- n27 -->
<g id="node28" class="node">
<title>n27</title>
<polygon fill="none" stroke="black" points="693.5,-540 587.5,-540 587.5,-504 693.5,-504 693.5,-540"/>
<text text-anchor="middle" x="640.5" y="-518.3" font-family="Times,serif" font-size="14.00">Identifier(ix)</text>
</g>
<!-- n25&#45;&gt;n27 -->
<g id="edge27" class="edge">
<title>n25&#45;&gt;n27</title>
<path fill="none" stroke="black" d="M555.14,-575.88C569.92,-566.72 588.29,-555.34 604.2,-545.48"/>
<polygon fill="black" stroke="black" points="606.09,-548.43 612.75,-540.19 602.41,-542.48 606.09,-548.43"/>
<text text-anchor="middle" x="573.14" y="-564.68" font-family="Times,serif" font-size="14.00">right</text>
</g>
<!-- n29 -->
<g id="node30" class="node">
<title>n29</title>
<polygon fill="none" stroke="black" points="767.5,-540 711.5,-540 711.5,-504 767.5,-504 767.5,-540"/>
<text text-anchor="middle" x="739.5" y="-518.3" font-family="Times,serif" font-size="14.00">Array</text>
</g>
<!-- n28&#45;&gt;n29 -->
<g id="edge29" class="edge">
<title>n28&#45;&gt;n29</title>
<path fill="none" stroke="black" d="M728.21,-575.7C729.86,-567.98 731.85,-558.71 733.69,-550.11"/>
<polygon fill="black" stroke="black" points="737.16,-550.62 735.83,-540.1 730.32,-549.15 737.16,-550.62"/>
<text text-anchor="middle" x="710.71" y="-564.5" font-family="Times,serif" font-size="14.00">body</text>
</g>
<!-- n30 -->
<g id="node31" class="node">
<title>n30</title>
<polygon fill="none" stroke="black" points="825,-468 654,-468 654,-432 825,-432 825,-468"/>
<text text-anchor="middle" x="739.5" y="-446.3" font-family="Times,serif" font-size="14.00">ExpressionStatement</text>
</g>
<!-- n29&#45;&gt;n30 -->
<g id="edge30" class="edge">
<title>n29&#45;&gt;n30</title>
<path fill="none" stroke="black" d="M739.5,-503.7C739.5,-495.98 739.5,-486.71 739.5,-478.11"/>
<polygon fill="black" stroke="black" points="743,-478.1 739.5,-468.1 736,-478.1 743,-478.1"/>
<text text-anchor="middle" x="734.5" y="-492.5" font-family="Times,serif" font-size="14.00">0</text>
</g>
<!-- n31 -->
<g id="node32" class="node">
<title>n31</title>
<polygon fill="none" stroke="black" points="801.5,-396 677.5,-396 677.5,-360 801.5,-360 801.5,-396"/>
<text text-anchor="middle" x="739.5" y="-374.3" font-family="Times,serif" font-size="14.00">CallExpression</text>
</g>
<!-- n30&#45;&gt;n31 -->
<g id="edge31" class="edge">
<title>n30&#45;&gt;n31</title>
<path fill="none" stroke="black" d="M739.5,-431.7C739.5,-423.98 739.5,-414.71 739.5,-406.11"/>
<polygon fill="black" stroke="black" points="743,-406.1 739.5,-396.1 736,-406.1 743,-406.1"/>
<text text-anchor="middle" x="700.5" y="-420.5" font-family="Times,serif" font-size="14.00">expression</text>
</g>
<!-- n32 -->
<g id="node33" class="node">
<title>n32</title>
<polygon fill="none" stroke="black" points="746.5,-324 590.5,-324 590.5,-288 746.5,-288 746.5,-324"/>
<text text-anchor="middle" x="668.5" y="-302.3" font-family="Times,serif" font-size="14.00">MemberExpression</text>
</g>
<!-- n31&#45;&gt;n32 -->
<g id="edge32" class="edge">
<title>n31&#45;&gt;n32</title>
<path fill="none" stroke="black" d="M721.95,-359.7C713.27,-351.14 702.64,-340.66 693.15,-331.3"/>
<polygon fill="black" stroke="black" points="695.43,-328.63 685.85,-324.1 690.51,-333.62 695.43,-328.63"/>
<text text-anchor="middle" x="700.95" y="-348.5" font-family="Times,serif" font-size="14.00">callee</text>
</g>
<!-- n35 -->
<g id="node36" class="node">
<title>n35</title>
<polygon fill="none" stroke="black" points="837.5,-324 781.5,-324 781.5,-288 837.5,-288 837.5,-324"/>
<text text-anchor="middle" x="809.5" y="-302.3" font-family="Times,serif" font-size="14.00">Array</text>
</g>
<!-- n31&#45;&gt;n35 -->
<g id="edge35" class="edge">
<title>n31&#45;&gt;n35</title>
<path fill="none" stroke="black" d="M756.8,-359.7C765.36,-351.14 775.84,-340.66 785.2,-331.3"/>
<polygon fill="black" stroke="black" points="787.8,-333.65 792.4,-324.1 782.85,-328.7 787.8,-333.65"/>
<text text-anchor="middle" x="795.8" y="-348.5" font-family="Times,serif" font-size="14.00">arguments</text>
</g>
<!-- n33 -->
<g id="node34" class="node">
<title>n33</title>
<polygon fill="none" stroke="black" points="592.5,-252 446.5,-252 446.5,-216 592.5,-216 592.5,-252"/>
<text text-anchor="middle" x="519.5" y="-230.3" font-family="Times,serif" font-size="14.00">Identifier(console)</text>
</g>
<!-- n32&#45;&gt;n33 -->
<g id="edge33" class="edge">
<title>n32&#45;&gt;n33</title>
<path fill="none" stroke="black" d="M632.05,-287.88C611.86,-278.39 586.58,-266.51 565.09,-256.42"/>
<polygon fill="black" stroke="black" points="566.37,-253.15 555.83,-252.07 563.39,-259.49 566.37,-253.15"/>
<text text-anchor="middle" x="610.05" y="-276.68" font-family="Times,serif" font-size="14.00">object</text>
</g>
<!-- n34 -->
<g id="node35" class="node">
<title>n34</title>
<polygon fill="none" stroke="black" points="726,-252 611,-252 611,-216 726,-216 726,-252"/>
<text text-anchor="middle" x="668.5" y="-230.3" font-family="Times,serif" font-size="14.00">Identifier(log)</text>
</g>
<!-- n32&#45;&gt;n34 -->
<g id="edge34" class="edge">
<title>n32&#45;&gt;n34</title>
<path fill="none" stroke="black" d="M668.5,-287.7C668.5,-279.98 668.5,-270.71 668.5,-262.11"/>
<polygon fill="black" stroke="black" points="672,-262.1 668.5,-252.1 665,-262.1 672,-262.1"/>
<text text-anchor="middle" x="700" y="-276.5" font-family="Times,serif" font-size="14.00">property</text>
</g>
<!-- n36 -->
<g id="node37" class="node">
<title>n36</title>
<polygon fill="none" stroke="black" points="910.5,-252 744.5,-252 744.5,-216 910.5,-216 910.5,-252"/>
<text text-anchor="middle" x="827.5" y="-230.3" font-family="Times,serif" font-size="14.00">BinaryExpression(+)</text>
</g>
<!-- n35&#45;&gt;n36 -->
<g id="edge36" class="edge">
<title>n35&#45;&gt;n36</title>
<path fill="none" stroke="black" d="M813.95,-287.7C815.95,-279.9 818.37,-270.51 820.6,-261.83"/>
<polygon fill="black" stroke="black" points="824,-262.66 823.1,-252.1 817.22,-260.92 824,-262.66"/>
<text text-anchor="middle" x="808.95" y="-276.5" font-family="Times,serif" font-size="14.00">0</text>
</g>
<!-- n37 -->
<g id="node38" class="node">
<title>n37</title>
<polygon fill="none" stroke="black" points="805.5,-180 691.5,-180 691.5,-144 805.5,-144 805.5,-180"/>
<text text-anchor="middle" x="748.5" y="-158.3" font-family="Times,serif" font-size="14.00">Identifier(val)</text>
</g>
<!-- n36&#45;&gt;n37 -->
<g id="edge37" class="edge">
<title>n36&#45;&gt;n37</title>
<path fill="none" stroke="black" d="M807.97,-215.7C798.12,-206.97 786.01,-196.24 775.3,-186.75"/>
<polygon fill="black" stroke="black" points="777.61,-184.12 767.8,-180.1 772.97,-189.36 777.61,-184.12"/>
<text text-anchor="middle" x="795.47" y="-204.5" font-family="Times,serif" font-size="14.00">left</text>
</g>
<!-- n38 -->
<g id="node39" class="node">
<title>n38</title>
<polygon fill="none" stroke="black" points="989.5,-180 823.5,-180 823.5,-144 989.5,-144 989.5,-180"/>
<text text-anchor="middle" x="906.5" y="-158.3" font-family="Times,serif" font-size="14.00">BinaryExpression(+)</text>
</g>
<!-- n36&#45;&gt;n38 -->
<g id="edge38" class="edge">
<title>n36&#45;&gt;n38</title>
<path fill="none" stroke="black" d="M847.03,-215.7C856.88,-206.97 868.99,-196.24 879.7,-186.75"/>
<polygon fill="black" stroke="black" points="882.03,-189.36 887.2,-180.1 877.39,-184.12 882.03,-189.36"/>
<text text-anchor="middle" x="829.03" y="-204.5" font-family="Times,serif" font-size="14.00">right</text>
</g>
<!-- n39 -->
<g id="node40" class="node">
<title>n39</title>
<polygon fill="none" stroke="black" points="911,-108 756,-108 756,-72 911,-72 911,-108"/>
<text text-anchor="middle" x="833.5" y="-86.3" font-family="Times,serif" font-size="14.00">UnaryExpression(&#45;)</text>
</g>
<!-- n38&#45;&gt;n39 -->
<g id="edge39" class="edge">
<title>n38&#45;&gt;n39</title>
<path fill="none" stroke="black" d="M888.46,-143.7C879.44,-135.05 868.38,-124.45 858.56,-115.03"/>
<polygon fill="black" stroke="black" points="860.98,-112.5 851.34,-108.1 856.13,-117.55 860.98,-112.5"/>
<text text-anchor="middle" x="875.96" y="-132.5" font-family="Times,serif" font-size="14.00">left</text>
</g>
<!-- n41 -->
<g id="node42" class="node">
<title>n41</title>
<polygon fill="none" stroke="black" points="1030,-108 929,-108 929,-72 1030,-72 1030,-108"/>
<text text-anchor="middle" x="979.5" y="-86.3" font-family="Times,serif" font-size="14.00">Literal[100]</text>
</g>
<!-- n38&#45;&gt;n41 -->
<g id="edge41" class="edge">
<title>n38&#45;&gt;n41</title>
<path fill="none" stroke="black" d="M924.54,-143.7C933.56,-135.05 944.62,-124.45 954.44,-115.03"/>
<polygon fill="black" stroke="black" points="956.87,-117.55 961.66,-108.1 952.02,-112.5 956.87,-117.55"/>
<text text-anchor="middle" x="906.54" y="-132.5" font-family="Times,serif" font-size="14.00">right</text>
</g>
<!-- n40 -->
<g id="node41" class="node">
<title>n40</title>
<polygon fill="none" stroke="black" points="879.5,-36 787.5,-36 787.5,0 879.5,0 879.5,-36"/>
<text text-anchor="middle" x="833.5" y="-14.3" font-family="Times,serif" font-size="14.00">Literal[10]</text>
</g>
<!-- n39&#45;&gt;n40 -->
<g id="edge40" class="edge">
<title>n39&#45;&gt;n40</title>
<path fill="none" stroke="black" d="M833.5,-71.7C833.5,-63.98 833.5,-54.71 833.5,-46.11"/>
<polygon fill="black" stroke="black" points="837,-46.1 833.5,-36.1 830,-46.1 837,-46.1"/>
<text text-anchor="middle" x="798.5" y="-60.5" font-family="Times,serif" font-size="14.00">argument</text>
</g>
<!-- n43 -->
<g id="node44" class="node">
<title>n43</title>
<polygon fill="none" stroke="black" points="507.5,-1044 383.5,-1044 383.5,-1008 507.5,-1008 507.5,-1044"/>
<text text-anchor="middle" x="445.5" y="-1022.3" font-family="Times,serif" font-size="14.00">CallExpression</text>
</g>
<!-- n42&#45;&gt;n43 -->
<g id="edge43" class="edge">
<title>n42&#45;&gt;n43</title>
<path fill="none" stroke="black" d="M431.2,-1079.7C433.31,-1071.9 435.86,-1062.51 438.22,-1053.83"/>
<polygon fill="black" stroke="black" points="441.62,-1054.67 440.86,-1044.1 434.86,-1052.84 441.62,-1054.67"/>
<text text-anchor="middle" x="392.2" y="-1068.5" font-family="Times,serif" font-size="14.00">expression</text>
</g>
<!-- n44 -->
<g id="node45" class="node">
<title>n44</title>
<polygon fill="none" stroke="black" points="491.5,-972 363.5,-972 363.5,-936 491.5,-936 491.5,-972"/>
<text text-anchor="middle" x="427.5" y="-950.3" font-family="Times,serif" font-size="14.00">Identifier(hoge)</text>
</g>
<!-- n43&#45;&gt;n44 -->
<g id="edge44" class="edge">
<title>n43&#45;&gt;n44</title>
<path fill="none" stroke="black" d="M441.05,-1007.7C439.05,-999.9 436.63,-990.51 434.4,-981.83"/>
<polygon fill="black" stroke="black" points="437.78,-980.92 431.9,-972.1 431,-982.66 437.78,-980.92"/>
<text text-anchor="middle" x="420.05" y="-996.5" font-family="Times,serif" font-size="14.00">callee</text>
</g>
<!-- n45 -->
<g id="node46" class="node">
<title>n45</title>
<polygon fill="none" stroke="black" points="565.5,-972 509.5,-972 509.5,-936 565.5,-936 565.5,-972"/>
<text text-anchor="middle" x="537.5" y="-950.3" font-family="Times,serif" font-size="14.00">Array</text>
</g>
<!-- n43&#45;&gt;n45 -->
<g id="edge45" class="edge">
<title>n43&#45;&gt;n45</title>
<path fill="none" stroke="black" d="M468.24,-1007.7C479.94,-998.8 494.36,-987.82 507.01,-978.2"/>
<polygon fill="black" stroke="black" points="509.18,-980.94 515.02,-972.1 504.94,-975.37 509.18,-980.94"/>
<text text-anchor="middle" x="507.24" y="-996.5" font-family="Times,serif" font-size="14.00">arguments</text>
</g>
<!-- n46 -->
<g id="node47" class="node">
<title>n46</title>
<polygon fill="none" stroke="black" points="527.5,-900 435.5,-900 435.5,-864 527.5,-864 527.5,-900"/>
<text text-anchor="middle" x="481.5" y="-878.3" font-family="Times,serif" font-size="14.00">Literal[45]</text>
</g>
<!-- n45&#45;&gt;n46 -->
<g id="edge46" class="edge">
<title>n45&#45;&gt;n46</title>
<path fill="none" stroke="black" d="M523.66,-935.7C517.01,-927.39 508.92,-917.28 501.61,-908.14"/>
<polygon fill="black" stroke="black" points="504.16,-905.73 495.18,-900.1 498.7,-910.1 504.16,-905.73"/>
<text text-anchor="middle" x="518.66" y="-924.5" font-family="Times,serif" font-size="14.00">0</text>
</g>
<!-- n47 -->
<g id="node48" class="node">
<title>n47</title>
<polygon fill="none" stroke="black" points="681.5,-900 545.5,-900 545.5,-864 681.5,-864 681.5,-900"/>
<text text-anchor="middle" x="613.5" y="-878.3" font-family="Times,serif" font-size="14.00">ArrayExpression</text>
</g>
<!-- n45&#45;&gt;n47 -->
<g id="edge47" class="edge">
<title>n45&#45;&gt;n47</title>
<path fill="none" stroke="black" d="M556.29,-935.7C565.67,-927.05 577.18,-916.45 587.41,-907.03"/>
<polygon fill="black" stroke="black" points="589.95,-909.45 594.93,-900.1 585.2,-904.3 589.95,-909.45"/>
<text text-anchor="middle" x="551.29" y="-924.5" font-family="Times,serif" font-size="14.00">1</text>
</g>
<!-- n48 -->
<g id="node49" class="node">
<title>n48</title>
<polygon fill="none" stroke="black" points="641.5,-828 585.5,-828 585.5,-792 641.5,-792 641.5,-828"/>
<text text-anchor="middle" x="613.5" y="-806.3" font-family="Times,serif" font-size="14.00">Array</text>
</g>
<!-- n47&#45;&gt;n48 -->
<g id="edge48" class="edge">
<title>n47&#45;&gt;n48</title>
<path fill="none" stroke="black" d="M613.5,-863.7C613.5,-855.98 613.5,-846.71 613.5,-838.11"/>
<polygon fill="black" stroke="black" points="617,-838.1 613.5,-828.1 610,-838.1 617,-838.1"/>
<text text-anchor="middle" x="580.5" y="-852.5" font-family="Times,serif" font-size="14.00">elements</text>
</g>
<!-- n49 -->
<g id="node50" class="node">
<title>n49</title>
<polygon fill="none" stroke="black" points="601.5,-756 509.5,-756 509.5,-720 601.5,-720 601.5,-756"/>
<text text-anchor="middle" x="555.5" y="-734.3" font-family="Times,serif" font-size="14.00">Literal[34]</text>
</g>
<!-- n48&#45;&gt;n49 -->
<g id="edge49" class="edge">
<title>n48&#45;&gt;n49</title>
<path fill="none" stroke="black" d="M599.16,-791.7C592.21,-783.3 583.73,-773.07 576.1,-763.86"/>
<polygon fill="black" stroke="black" points="578.75,-761.57 569.67,-756.1 573.36,-766.04 578.75,-761.57"/>
<text text-anchor="middle" x="594.16" y="-780.5" font-family="Times,serif" font-size="14.00">0</text>
</g>
<!-- n50 -->
<g id="node51" class="node">
<title>n50</title>
<polygon fill="none" stroke="black" points="711.5,-756 619.5,-756 619.5,-720 711.5,-720 711.5,-756"/>
<text text-anchor="middle" x="665.5" y="-734.3" font-family="Times,serif" font-size="14.00">Literal[56]</text>
</g>
<!-- n48&#45;&gt;n50 -->
<g id="edge50" class="edge">
<title>n48&#45;&gt;n50</title>
<path fill="none" stroke="black" d="M626.35,-791.7C632.53,-783.39 640.04,-773.28 646.82,-764.14"/>
<polygon fill="black" stroke="black" points="649.64,-766.22 652.79,-756.1 644.02,-762.04 649.64,-766.22"/>
<text text-anchor="middle" x="621.35" y="-780.5" font-family="Times,serif" font-size="14.00">1</text>
</g>
</g>
</svg>
